<?xml version="1.0" encoding="utf-8"?>
<!-- Generator: Adobe Illustrator 16.0.0, SVG Export Plug-In . SVG Version: 6.00 Build 0)  -->
<!DOCTYPE svg PUBLIC "-//W3C//DTD SVG 1.1//EN" "http://www.w3.org/Graphics/SVG/1.1/DTD/svg11.dtd">
<svg version="1.1" id="Layer_1" xmlns="http://www.w3.org/2000/svg" xmlns:xlink="http://www.w3.org/1999/xlink" x="0px" y="0px"
	 width="550px" height="256.666px" viewBox="0 0 550 256.666" enable-background="new 0 0 550 256.666" xml:space="preserve">
<g>
	<path fill="#C1272D" d="M111.667,160.659c0-2.258,0.296-4.402,0.416-6.446c-8.166-0.048-15.45-1.454-22.084-4.241
		c-6.75-2.832-12.485-6.789-17.317-11.875c-4.836-5.082-8.514-11.082-11.096-18c-2.586-6.914-3.86-14.538-3.86-22.875
		c0-8.164,1.296-15.75,3.882-22.75c2.582-7,6.293-13.039,11.129-18.125c4.832-5.082,10.626-9.039,17.376-11.875
		c6.75-2.832,14.29-4.25,22.626-4.25c8.332,0,15.875,1.418,22.625,4.25c6.75,2.836,12.54,6.793,17.375,11.875
		c4.832,5.086,8.539,11.125,11.125,18.125c2.582,7,3.875,14.586,3.875,22.75c0,3.452-0.235,6.775-0.678,9.983
		c11.73,0.85,21.729,5.346,29.984,13.513c2.544,2.518,4.724,5.208,6.566,8.059c3.067-9.662,4.628-20.169,4.628-31.554
		c0-14.164-2.375-27-7.125-38.5S189.74,37.433,181.24,29.347c-8.5-8.082-18.586-14.289-30.25-18.625
		c-11.668-4.332-24.418-6.5-38.25-6.5c-13.836,0-26.586,2.168-38.25,6.5c-11.668,4.336-21.75,10.543-30.25,18.625
		c-8.5,8.086-15.125,17.875-19.875,29.375s-7.125,24.336-7.125,38.5c0,14.168,2.375,27,7.125,38.5s11.375,21.293,19.875,29.375
		c8.5,8.086,18.349,14.293,30.017,18.625c11.492,4.269,24.41,6.426,37.41,6.488V160.659z"/>
</g>
<g>
	<path d="M153.669,189.458v-27.969c14.926,0.925,14.998-2.447,14.998-7.344c0-4.479-2.449-6.719-7.344-6.719
		c-4.949,0-7.422,3.074-7.422,9.219v87.357h-31.719v-84.076c0-6.875,0.689-12.512,2.07-16.914c1.379-4.4,3.736-8.502,7.07-12.305
		c3.75-4.219,8.438-7.551,14.062-10c5.625-2.447,11.432-3.672,17.422-3.672c10.832,0,19.934,3.646,27.305,10.938
		c7.369,7.293,11.055,16.328,11.055,27.109c0,10.469-3.309,18.959-9.922,25.469c-6.043,5.99-15.156,8.984-27.344,8.984
		L153.669,189.458z"/>
</g>
<g>
	<path d="M242.198,82.027v29.843h13.125v30.859h-13.125c0,6.199,0.977,10.469,2.93,12.812s5.533,3.516,10.742,3.516v30.703
		c-1.512,0.052-2.631,0.078-3.359,0.078c-6.615,0-12.852-1.535-18.711-4.609c-5.859-3.072-10.561-7.238-14.102-12.5
		c-4.48-6.719-6.719-15.625-6.719-26.719V82.027H242.198z"/>
	<path d="M298.917,112.776v77.891h-29.219v-77.891H298.917z M284.386,78.011c3.957,0,7.383,1.394,10.273,4.18
		c2.891,2.787,4.336,6.082,4.336,9.883c0,4.062-1.367,7.396-4.102,10c-2.734,2.604-6.238,3.906-10.508,3.906
		c-4.271,0-7.773-1.302-10.508-3.906c-2.734-2.604-4.102-5.938-4.102-10c0-3.801,1.445-7.096,4.336-9.883
		C277.003,79.405,280.427,78.011,284.386,78.011z"/>
	<path d="M422.979,190.667h-29.219v-42.031c0-3.229-0.34-5.469-1.016-6.719c-0.678-1.25-1.902-1.875-3.672-1.875
		c-3.281,0-4.922,2.891-4.922,8.672v41.953h-29.219v-42.031c0-3.229-0.352-5.469-1.055-6.719s-1.941-1.875-3.711-1.875
		c-3.23,0-4.844,2.891-4.844,8.672v41.953h-29.219v-47.969c0-8.75,2.941-16.184,8.828-22.305c5.885-6.119,13.02-9.179,21.406-9.179
		c8.645,0,16.406,3.646,23.281,10.937c7.656-7.291,15.312-10.937,22.969-10.937c9.738,0,17.551,3.542,23.438,10.624
		c4.635,5.521,6.953,13.568,6.953,24.141V190.667z"/>
	<path d="M519.33,144.274L532,170c-2.396,0.416-57.214,20.308-59.192,20.308c-11.719,0-21.484-3.854-29.297-11.562
		c-7.812-7.707-11.719-17.369-11.719-28.984c0-11.301,3.945-20.885,11.836-28.75c7.891-7.863,17.486-11.796,28.789-11.796
		c12.604,0,22.539,3.685,29.805,11.054c7.266,7.371,10.898,17.436,10.898,30.195v40.696h-29.219v-38.587
		c0-4.113-1.004-7.395-3.008-9.844c-2.006-2.447-4.701-3.672-8.086-3.672c-3.074,0-5.73,1.121-7.969,3.359
		c-2.24,2.24-3.359,4.896-3.359,7.969c0,3.23,1.016,5.887,3.047,7.969c2.031,2.084,4.609,3.125,7.734,3.125
		C474.812,161.479,517.143,145.629,519.33,144.274z"/>
</g>
<text transform="matrix(1 0 0 1 174.6665 244.0029)" font-family="'CenturyGothic-Bold'" font-size="51" letter-spacing="4">Body Work</text>
</svg>
